
Nineteen year old Danny Flynn is imprisoned for his involvement with the IRA 
in Belfast. He leaves behind his family and his fourteen year old girlfriend, 
Maggie Hamill. Fourteen years ..

              The.Boxer.1997.DVDRip.H264.AC3.Multisub.anoXmous


Format                                   : Matroska
Format version                           : Version 2
File size                                : 1.91 GiB
Duration                                 : 1h 53mn
Overall bit rate                         : 2 407 Kbps
Writing application                      : mkvmerge v6.1.0 ('Old Devil') built on Mar  2 2013 14:32:37
Writing library                          : libebml v1.3.0 + libmatroska v1.4.0

Video
ID                                       : 1
Format                                   : AVC
Format/Info                              : Advanced Video Codec
Format profile                           : High@L3.0
Format settings, CABAC                   : Yes
Format settings, ReFrames                : 4 frames
Codec ID                                 : V_MPEG4/ISO/AVC
Duration                                 : 1h 53mn
Bit rate                                 : 2 000 Kbps
Width                                    : 712 pixels
Height                                   : 550 pixels
Display aspect ratio                     : 1.85:1
Original display aspect ratio            : 1.85:1
Frame rate mode                          : Constant
Frame rate                               : 25.000 fps
Color space                              : YUV
Chroma subsampling                       : 4:2:0
Bit depth                                : 8 bits
Scan type                                : Progressive
Bits/(Pixel*Frame)                       : 0.204
Stream size                              : 1.57 GiB (82%)
Writing library                          : x264 core 65
Encoding settings                        : cabac=1 / ref=4 / deblock=1:0:0 / analyse=0x3:0x133 / me=umh / subme=9 / psy_rd=1.0:1.0 / mixed_ref=1 
/ me_range=16 / chroma_me=1 / trellis=1 / 8x8dct=1 / cqm=0 / deadzone=21,11 / chroma_qp_offset=-4 / threads=3 / nr=0 / decimate=1 / mbaff=0 / 
bframes=6 / b_pyramid=1 / b_adapt=1 / b_bias=0 / direct=3 / wpredb=1 / keyint=250 / keyint_min=25 / scenecut=40(pre) / rc=2pass / bitrate=2000 
/ ratetol=1.0 / qcomp=0.60 / qpmin=10 / qpmax=51 / qpstep=4 / cplxblur=20.0 / qblur=0.5 / ip_ratio=1.40 / pb_ratio=1.30 / aq=1:1.00

Default                                  : Yes
Forced                                   : No
Color primaries                          : BT.601 NTSC
Transfer characteristics                 : BT.709
Matrix coefficients                      : BT.601

Audio
ID                                       : 2
Format                                   : AC-3
Format/Info                              : Audio Coding 3
Mode extension                           : CM (complete main)
Format settings, Endianness              : Big
Codec ID                                 : A_AC3
Duration                                 : 1h 53mn
Bit rate mode                            : Constant
Bit rate                                 : 384 Kbps
Channel(s)                               : 6 channels
Channel positions                        : Front: L C R, Side: L R, LFE
Sampling rate                            : 48.0 KHz
Bit depth                                : 16 bits
Compression mode                         : Lossy
Stream size                              : 312 MiB (16%)
Language                                 : English
Default                                  : Yes
Forced                                   : No

Text #1

Format                                   : VobSub
Language                                 : English


Text #2
Format                                   : VobSub
Language                                 : French


Text #3
Format                                   : VobSub
Language                                 : Portuguese


Text #4
Format                                   : VobSub
Language                                 : Danish


Text #5
Format                                   : VobSub
Language                                 : Finnish


Text #6
Format                                   : VobSub
Language                                 : Swedish


Text #7
Format                                   : VobSub
Language                                 : Norwegian


Text #8
Format                                   : VobSub
Language                                 : German


Text #9

Format                                   : VobSub
Language                                 : Dutch


Text #10

Format                                   : VobSub
Language                                 : Czech


Text #11
Format                                   : VobSub
Language                                 : Polish


Text #12
Format                                   : VobSub
Language                                 : Turkish


Text #13
Format                                   : VobSub
Language                                 : Hungarian


Text #14
Format                                   : VobSub
Language                                 : Bulgarian



